<svg width="60" height="60" viewBox="0 0 60 60" fill="none" xmlns="http://www.w3.org/2000/svg">
<g clip-path="url(#clip0_269_88)">
<path d="M30 56.25C23.0381 56.25 16.3613 53.4844 11.4384 48.5616C6.51562 43.6387 3.75 36.9619 3.75 30C3.75 23.0381 6.51562 16.3613 11.4384 11.4384C16.3613 6.51562 23.0381 3.75 30 3.75C36.9619 3.75 43.6387 6.51562 48.5616 11.4384C53.4844 16.3613 56.25 23.0381 56.25 30C56.25 36.9619 53.4844 43.6387 48.5616 48.5616C43.6387 53.4844 36.9619 56.25 30 56.25ZM30 60C37.9565 60 45.5871 56.8393 51.2132 51.2132C56.8393 45.5871 60 37.9565 60 30C60 22.0435 56.8393 14.4129 51.2132 8.7868C45.5871 3.16071 37.9565 0 30 0C22.0435 0 14.4129 3.16071 8.7868 8.7868C3.16071 14.4129 0 22.0435 0 30C0 37.9565 3.16071 45.5871 8.7868 51.2132C14.4129 56.8393 22.0435 60 30 60Z" fill="white"/>
<path d="M18.75 23.4375C18.75 22.1943 19.2439 21.002 20.1229 20.1229C21.002 19.2439 22.1943 18.75 23.4375 18.75C24.6807 18.75 25.873 19.2439 26.7521 20.1229C27.6311 21.002 28.125 22.1943 28.125 23.4375V36.5625C28.125 37.8057 27.6311 38.998 26.7521 39.8771C25.873 40.7561 24.6807 41.25 23.4375 41.25C22.1943 41.25 21.002 40.7561 20.1229 39.8771C19.2439 38.998 18.75 37.8057 18.75 36.5625V23.4375ZM31.875 23.4375C31.875 22.1943 32.3689 21.002 33.2479 20.1229C34.127 19.2439 35.3193 18.75 36.5625 18.75C37.8057 18.75 38.998 19.2439 39.8771 20.1229C40.7561 21.002 41.25 22.1943 41.25 23.4375V36.5625C41.25 37.8057 40.7561 38.998 39.8771 39.8771C38.998 40.7561 37.8057 41.25 36.5625 41.25C35.3193 41.25 34.127 40.7561 33.2479 39.8771C32.3689 38.998 31.875 37.8057 31.875 36.5625V23.4375Z" fill="white"/>
</g>
<defs>
<clipPath id="clip0_269_88">
<rect width="60" height="60" fill="white"/>
</clipPath>
</defs>
</svg>
