<svg width="60" height="60" viewBox="0 0 60 60" fill="none" xmlns="http://www.w3.org/2000/svg">
<path d="M24 43.5L42 30L24 16.5M60 30C60 13.38 46.62 0 30 0C26.49 0 23.1 0.57 19.86 1.68L21.96 7.5C24.51 6.48 27.18 5.91 30 5.91C43.23 5.91 54.09 16.77 54.09 30C54.09 43.23 43.23 54.09 30 54.09C16.77 54.09 5.91 43.23 5.91 30C5.91 27.18 6.48 24.36 7.5 21.84L1.68 19.86C0.57 23.1 0 26.49 0 30C0 46.62 13.38 60 30 60C46.62 60 60 46.62 60 30ZM10.41 5.91C12.96 5.91 15 8.04 15 10.41C15 12.96 12.96 15 10.41 15C8.04 15 5.91 12.96 5.91 10.41C5.91 8.04 8.04 5.91 10.41 5.91Z" fill="white"/>
</svg>
